<svg xmlns="http://www.w3.org/2000/svg" xmlns:xlink="http://www.w3.org/1999/xlink" width="1452.245" zoomAndPan="magnify" viewBox="22.955 366.85 1452.245 766.3" height="766.3" preserveAspectRatio="xMidYMid meet" version="1.0"><defs><clipPath id="1775fd4d88"><path d="M 44.105469 388 L 664.355469 388 L 664.355469 1112 L 44.105469 1112 Z M 44.105469 388 " clip-rule="nonzero"/></clipPath><clipPath id="f857403fc5"><path d="M 439.882812 388 L 1060.132812 388 L 1060.132812 1112 L 439.882812 1112 Z M 439.882812 388 " clip-rule="nonzero"/></clipPath><clipPath id="66a24e9cde"><path d="M 833.800781 388 L 1454.050781 388 L 1454.050781 1112 L 833.800781 1112 Z M 833.800781 388 " clip-rule="nonzero"/></clipPath><clipPath id="7df688a718"><path d="M 551 534 L 620 534 L 620 586 L 551 586 Z M 551 534 " clip-rule="nonzero"/></clipPath><clipPath id="ef27ac718f"><path d="M 551.828125 569.878906 L 610.0625 534.34375 L 619.621094 550.007812 L 561.386719 585.542969 Z M 551.828125 569.878906 " clip-rule="nonzero"/></clipPath><clipPath id="2ecb131d17"><path d="M 0.761719 0.238281 L 68.679688 0.238281 L 68.679688 51.601562 L 0.761719 51.601562 Z M 0.761719 0.238281 " clip-rule="nonzero"/></clipPath><clipPath id="58ea905be9"><path d="M 0.828125 35.878906 L 59.0625 0.34375 L 68.621094 16.007812 L 10.386719 51.542969 Z M 0.828125 35.878906 " clip-rule="nonzero"/></clipPath><clipPath id="f73ff931bd"><rect x="0" width="69" y="0" height="52"/></clipPath><clipPath id="ed9dcb7f26"><path d="M 484 493 L 553 493 L 553 545 L 484 545 Z M 484 493 " clip-rule="nonzero"/></clipPath><clipPath id="92212c3466"><path d="M 484.71875 528.667969 L 543.082031 493.058594 L 552.640625 508.71875 L 494.277344 544.332031 Z M 484.71875 528.667969 " clip-rule="nonzero"/></clipPath><clipPath id="47ea2568f1"><path d="M 0.558594 0 L 68.71875 0 L 68.71875 51.558594 L 0.558594 51.558594 Z M 0.558594 0 " clip-rule="nonzero"/></clipPath><clipPath id="5329777e63"><path d="M 0.71875 35.667969 L 59.082031 0.0585938 L 68.640625 15.71875 L 10.277344 51.332031 Z M 0.71875 35.667969 " clip-rule="nonzero"/></clipPath><clipPath id="6aa851ca02"><rect x="0" width="69" y="0" height="52"/></clipPath><clipPath id="e92a1da679"><path d="M 484 914 L 553 914 L 553 966 L 484 966 Z M 484 914 " clip-rule="nonzero"/></clipPath><clipPath id="40bb69d3d4"><path d="M 484.71875 950.199219 L 543.082031 914.585938 L 552.640625 930.25 L 494.277344 965.863281 Z M 484.71875 950.199219 " clip-rule="nonzero"/></clipPath><clipPath id="3ec19d82d7"><path d="M 0.558594 0.398438 L 68.71875 0.398438 L 68.71875 52 L 0.558594 52 Z M 0.558594 0.398438 " clip-rule="nonzero"/></clipPath><clipPath id="f95710d49f"><path d="M 0.71875 36.199219 L 59.082031 0.585938 L 68.640625 16.25 L 10.277344 51.863281 Z M 0.71875 36.199219 " clip-rule="nonzero"/></clipPath><clipPath id="9af061af26"><rect x="0" width="69" y="0" height="52"/></clipPath><clipPath id="c9c5fc59af"><path d="M 551 955 L 620 955 L 620 1007 L 551 1007 Z M 551 955 " clip-rule="nonzero"/></clipPath><clipPath id="901e73eaaa"><path d="M 551.828125 991.019531 L 610.0625 955.484375 L 619.621094 971.148438 L 561.386719 1006.683594 Z M 551.828125 991.019531 " clip-rule="nonzero"/></clipPath><clipPath id="db2038e1c5"><path d="M 0.761719 0.441406 L 68.679688 0.441406 L 68.679688 51.800781 L 0.761719 51.800781 Z M 0.761719 0.441406 " clip-rule="nonzero"/></clipPath><clipPath id="7faaa223c7"><path d="M 0.828125 36.019531 L 59.0625 0.484375 L 68.621094 16.148438 L 10.386719 51.683594 Z M 0.828125 36.019531 " clip-rule="nonzero"/></clipPath><clipPath id="f9a6024145"><rect x="0" width="69" y="0" height="52"/></clipPath><clipPath id="6cb0fad9b0"><path d="M 879 914 L 949 914 L 949 967 L 879 967 Z M 879 914 " clip-rule="nonzero"/></clipPath><clipPath id="950691c9bc"><path d="M 879.550781 950.546875 L 938.589844 914.519531 L 948.148438 930.183594 L 889.105469 966.210938 Z M 879.550781 950.546875 " clip-rule="nonzero"/></clipPath><clipPath id="8e11279ecb"><path d="M 0.359375 0.398438 L 69.238281 0.398438 L 69.238281 52.238281 L 0.359375 52.238281 Z M 0.359375 0.398438 " clip-rule="nonzero"/></clipPath><clipPath id="38a5095465"><path d="M 0.550781 36.546875 L 59.589844 0.519531 L 69.148438 16.183594 L 10.105469 52.210938 Z M 0.550781 36.546875 " clip-rule="nonzero"/></clipPath><clipPath id="e423501a58"><rect x="0" width="70" y="0" height="53"/></clipPath><clipPath id="26f80f0878"><path d="M 946 956 L 1015 956 L 1015 1008 L 946 1008 Z M 946 956 " clip-rule="nonzero"/></clipPath><clipPath id="6030901b85"><path d="M 946.039062 992.140625 L 1005.117188 956.09375 L 1014.613281 971.652344 L 955.535156 1007.703125 Z M 946.039062 992.140625 " clip-rule="nonzero"/></clipPath><clipPath id="9553de6337"><path d="M 0 0 L 68.71875 0 L 68.71875 51.761719 L 0 51.761719 Z M 0 0 " clip-rule="nonzero"/></clipPath><clipPath id="9a9473f4e7"><path d="M 0.0390625 36.140625 L 59.117188 0.09375 L 68.613281 15.652344 L 9.535156 51.703125 Z M 0.0390625 36.140625 " clip-rule="nonzero"/></clipPath><clipPath id="71899cdf40"><rect x="0" width="69" y="0" height="52"/></clipPath><clipPath id="f8a4b16fe0"><path d="M 879 492 L 949 492 L 949 544 L 879 544 Z M 879 492 " clip-rule="nonzero"/></clipPath><clipPath id="7a87fe1af3"><path d="M 879.550781 528.148438 L 938.589844 492.121094 L 948.148438 507.78125 L 889.105469 543.808594 Z M 879.550781 528.148438 " clip-rule="nonzero"/></clipPath><clipPath id="4362b79cb1"><path d="M 0.359375 0 L 69.238281 0 L 69.238281 51.839844 L 0.359375 51.839844 Z M 0.359375 0 " clip-rule="nonzero"/></clipPath><clipPath id="8f45193403"><path d="M 0.550781 36.148438 L 59.589844 0.121094 L 69.148438 15.78125 L 10.105469 51.808594 Z M 0.550781 36.148438 " clip-rule="nonzero"/></clipPath><clipPath id="52b907cea7"><rect x="0" width="70" y="0" height="52"/></clipPath><clipPath id="a29f336c2c"><path d="M 947 533 L 1015 533 L 1015 585 L 947 585 Z M 947 533 " clip-rule="nonzero"/></clipPath><clipPath id="30de156367"><path d="M 947.117188 569.160156 L 1005.054688 533.804688 L 1014.613281 549.46875 L 956.675781 584.824219 Z M 947.117188 569.160156 " clip-rule="nonzero"/></clipPath><clipPath id="f8bb6779fa"><path d="M 0.0390625 0.761719 L 67.71875 0.761719 L 67.71875 51.878906 L 0.0390625 51.878906 Z M 0.0390625 0.761719 " clip-rule="nonzero"/></clipPath><clipPath id="2e6fc84c7a"><path d="M 0.117188 36.160156 L 58.054688 0.804688 L 67.613281 16.46875 L 9.675781 51.824219 Z M 0.117188 36.160156 " clip-rule="nonzero"/></clipPath><clipPath id="33e919e059"><rect x="0" width="68" y="0" height="52"/></clipPath><clipPath id="b28ef95ed5"><path d="M 502 916 L 603 916 L 603 1005 L 502 1005 Z M 502 916 " clip-rule="nonzero"/></clipPath><clipPath id="c2630fe386"><path d="M 502.804688 960.621094 L 575.734375 916.007812 L 602.667969 960.039062 L 529.738281 1004.652344 Z M 502.804688 960.621094 " clip-rule="nonzero"/></clipPath><clipPath id="d941f04fc1"><path d="M 0.800781 0 L 100.878906 0 L 100.878906 88.878906 L 0.800781 88.878906 Z M 0.800781 0 " clip-rule="nonzero"/></clipPath><clipPath id="09a7d35ce1"><path d="M 0.804688 44.621094 L 73.734375 0.0078125 L 100.667969 44.039062 L 27.738281 88.652344 Z M 0.804688 44.621094 " clip-rule="nonzero"/></clipPath><clipPath id="2da30d7985"><rect x="0" width="101" y="0" height="89"/></clipPath><clipPath id="efbdb45b44"><path d="M 895 917 L 997 917 L 997 1007 L 895 1007 Z M 895 917 " clip-rule="nonzero"/></clipPath><clipPath id="2d9ae1c02b"><path d="M 895.511719 962.417969 L 969.636719 917.078125 L 996.566406 961.105469 L 922.441406 1006.445312 Z M 895.511719 962.417969 " clip-rule="nonzero"/></clipPath><clipPath id="6046dc351e"><path d="M 0.441406 0.0390625 L 101.71875 0.0390625 L 101.71875 89.558594 L 0.441406 89.558594 Z M 0.441406 0.0390625 " clip-rule="nonzero"/></clipPath><clipPath id="64bcad3bd1"><path d="M 0.511719 45.417969 L 74.636719 0.078125 L 101.566406 44.105469 L 27.441406 89.445312 Z M 0.511719 45.417969 " clip-rule="nonzero"/></clipPath><clipPath id="b6bcb37258"><rect x="0" width="102" y="0" height="90"/></clipPath></defs><rect x="-150" width="1800" fill="#ffffff" y="-149.999993" height="1799.99992" fill-opacity="1"/><rect x="-150" width="1800" fill="#fefcfb" y="-149.999993" height="1799.99992" fill-opacity="1"/><g clip-path="url(#1775fd4d88)"><path fill="#808eaa" d="M 612.664062 893.234375 L 354.21875 1051.160156 L 95.769531 893.234375 L 95.769531 606.597656 L 354.21875 448.667969 L 612.664062 606.597656 L 612.664062 893.234375 M 664.355469 922.214844 L 664.355469 577.617188 L 354.21875 388.089844 L 44.082031 577.617188 L 44.082031 922.214844 L 354.21875 1111.742188 Z M 664.355469 922.214844 " fill-opacity="1" fill-rule="nonzero"/></g><g clip-path="url(#f857403fc5)"><path fill="#425680" d="M 1008.445312 893.234375 L 749.996094 1051.160156 L 491.550781 893.234375 L 491.550781 606.597656 L 749.996094 448.667969 L 1008.445312 606.597656 L 1008.445312 893.234375 M 1060.132812 922.214844 L 1060.132812 577.617188 L 749.996094 388.089844 L 439.859375 577.617188 L 439.859375 922.214844 L 749.996094 1111.742188 Z M 1060.132812 922.214844 " fill-opacity="1" fill-rule="nonzero"/></g><g clip-path="url(#66a24e9cde)"><path fill="#001f54" d="M 1402.359375 893.234375 L 1143.914062 1051.160156 L 885.464844 893.234375 L 885.464844 606.597656 L 1143.914062 448.667969 L 1402.359375 606.597656 L 1402.359375 893.234375 M 1454.050781 922.214844 L 1454.050781 577.617188 L 1143.914062 388.089844 L 833.777344 577.617188 L 833.777344 922.214844 L 1143.914062 1111.742188 Z M 1454.050781 922.214844 " fill-opacity="1" fill-rule="nonzero"/></g><g clip-path="url(#7df688a718)"><g clip-path="url(#ef27ac718f)"><g transform="matrix(1, 0, 0, 1, 551, 534)"><g clip-path="url(#f73ff931bd)"><g clip-path="url(#2ecb131d17)"><g clip-path="url(#58ea905be9)"><path fill="#fefcfb" d="M 0.828125 35.878906 L 59.074219 0.335938 L 68.632812 16 L 10.386719 51.542969 Z M 0.828125 35.878906 " fill-opacity="1" fill-rule="nonzero"/></g></g></g></g></g></g><g clip-path="url(#ed9dcb7f26)"><g clip-path="url(#92212c3466)"><g transform="matrix(1, 0, 0, 1, 484, 493)"><g clip-path="url(#6aa851ca02)"><g clip-path="url(#47ea2568f1)"><g clip-path="url(#5329777e63)"><path fill="#fefcfb" d="M 0.71875 35.667969 L 59.089844 0.0507812 L 68.648438 15.714844 L 10.277344 51.332031 Z M 0.71875 35.667969 " fill-opacity="1" fill-rule="nonzero"/></g></g></g></g></g></g><g clip-path="url(#e92a1da679)"><g clip-path="url(#40bb69d3d4)"><g transform="matrix(1, 0, 0, 1, 484, 914)"><g clip-path="url(#9af061af26)"><g clip-path="url(#3ec19d82d7)"><g clip-path="url(#f95710d49f)"><path fill="#fefcfb" d="M 0.71875 36.199219 L 59.089844 0.582031 L 68.648438 16.246094 L 10.277344 51.863281 Z M 0.71875 36.199219 " fill-opacity="1" fill-rule="nonzero"/></g></g></g></g></g></g><g clip-path="url(#c9c5fc59af)"><g clip-path="url(#901e73eaaa)"><g transform="matrix(1, 0, 0, 1, 551, 955)"><g clip-path="url(#f9a6024145)"><g clip-path="url(#db2038e1c5)"><g clip-path="url(#7faaa223c7)"><path fill="#fefcfb" d="M 0.828125 36.019531 L 59.074219 0.476562 L 68.632812 16.140625 L 10.386719 51.683594 Z M 0.828125 36.019531 " fill-opacity="1" fill-rule="nonzero"/></g></g></g></g></g></g><g clip-path="url(#6cb0fad9b0)"><g clip-path="url(#950691c9bc)"><g transform="matrix(1, 0, 0, 1, 879, 914)"><g clip-path="url(#e423501a58)"><g clip-path="url(#8e11279ecb)"><g clip-path="url(#38a5095465)"><path fill="#fefcfb" d="M 0.550781 36.546875 L 59.589844 0.519531 L 69.148438 16.183594 L 10.105469 52.210938 Z M 0.550781 36.546875 " fill-opacity="1" fill-rule="nonzero"/></g></g></g></g></g></g><g clip-path="url(#26f80f0878)"><g clip-path="url(#6030901b85)"><g transform="matrix(1, 0, 0, 1, 946, 956)"><g clip-path="url(#71899cdf40)"><g clip-path="url(#9553de6337)"><g clip-path="url(#9a9473f4e7)"><path fill="#fefcfb" d="M 0.0390625 36.140625 L 59.125 0.0898438 L 68.621094 15.648438 L 9.535156 51.703125 Z M 0.0390625 36.140625 " fill-opacity="1" fill-rule="nonzero"/></g></g></g></g></g></g><g clip-path="url(#f8a4b16fe0)"><g clip-path="url(#7a87fe1af3)"><g transform="matrix(1, 0, 0, 1, 879, 492)"><g clip-path="url(#52b907cea7)"><g clip-path="url(#4362b79cb1)"><g clip-path="url(#8f45193403)"><path fill="#fefcfb" d="M 0.550781 36.148438 L 59.589844 0.117188 L 69.148438 15.78125 L 10.105469 51.808594 Z M 0.550781 36.148438 " fill-opacity="1" fill-rule="nonzero"/></g></g></g></g></g></g><g clip-path="url(#a29f336c2c)"><g clip-path="url(#30de156367)"><g transform="matrix(1, 0, 0, 1, 947, 533)"><g clip-path="url(#33e919e059)"><g clip-path="url(#f8bb6779fa)"><g clip-path="url(#2e6fc84c7a)"><path fill="#fefcfb" d="M 0.117188 36.160156 L 58.058594 0.804688 L 67.617188 16.46875 L 9.675781 51.824219 Z M 0.117188 36.160156 " fill-opacity="1" fill-rule="nonzero"/></g></g></g></g></g></g><g clip-path="url(#b28ef95ed5)"><g clip-path="url(#c2630fe386)"><g transform="matrix(1, 0, 0, 1, 502, 916)"><g clip-path="url(#2da30d7985)"><g clip-path="url(#d941f04fc1)"><g clip-path="url(#09a7d35ce1)"><path fill="#808eaa" d="M 0.804688 44.621094 L 73.734375 0.0117188 L 100.667969 44.042969 L 27.738281 88.652344 Z M 0.804688 44.621094 " fill-opacity="1" fill-rule="nonzero"/></g></g></g></g></g></g><g clip-path="url(#efbdb45b44)"><g clip-path="url(#2d9ae1c02b)"><g transform="matrix(1, 0, 0, 1, 895, 917)"><g clip-path="url(#b6bcb37258)"><g clip-path="url(#6046dc351e)"><g clip-path="url(#64bcad3bd1)"><path fill="#425680" d="M 0.511719 45.417969 L 74.636719 0.078125 L 101.566406 44.105469 L 27.441406 89.445312 Z M 0.511719 45.417969 " fill-opacity="1" fill-rule="nonzero"/></g></g></g></g></g></g></svg>